<svg xmlns="http://www.w3.org/2000/svg" style="display: none;">
  <!-- Icono: Análisis/Gráfico -->
  <symbol id="icon-analysis" viewBox="0 0 24 24" fill="none" stroke="currentColor" stroke-width="2" stroke-linecap="round" stroke-linejoin="round">
    <line x1="12" y1="2" x2="12" y2="22"></line>
    <path d="M17 5H9.5a3.5 3.5 0 0 0 0 7h5a3.5 3.5 0 0 1 0 7H6"></path>
  </symbol>

  <!-- Icono: Cohete/Lanzar -->
  <symbol id="icon-rocket" viewBox="0 0 24 24" fill="none" stroke="currentColor" stroke-width="2" stroke-linecap="round" stroke-linejoin="round">
    <path d="M4.5 16.5c-1.5-1.5-2-3.5-2-5.5a6 6 0 0 1 3.064-5.064m.648-.648A6 6 0 0 1 12 2c3.314 0 6 2.686 6 6 0 2-1.5 4-3 5.5m0 0c1.5 1.5 3 3.5 3 5.5 0 3.314-2.686 6-6 6s-6-2.686-6-6c0-2 .5-4 2-5.5"></path>
    <circle cx="12" cy="12" r="1"></circle>
  </symbol>

  <!-- Icono: Limpiar/Reset -->
  <symbol id="icon-reset" viewBox="0 0 24 24" fill="none" stroke="currentColor" stroke-width="2" stroke-linecap="round" stroke-linejoin="round">
    <polyline points="23 4 23 10 17 10"></polyline>
    <path d="M20.49 15a9 9 0 1 1-2-8.83"></path>
  </symbol>

  <!-- Icono: Luna/Tema oscuro -->
  <symbol id="icon-moon" viewBox="0 0 24 24" fill="none" stroke="currentColor" stroke-width="2" stroke-linecap="round" stroke-linejoin="round">
    <path d="M21 12.79A9 9 0 1 1 11.21 3 7 7 0 0 0 21 12.79z"></path>
  </symbol>

  <!-- Icono: Sol/Tema claro -->
  <symbol id="icon-sun" viewBox="0 0 24 24" fill="none" stroke="currentColor" stroke-width="2" stroke-linecap="round" stroke-linejoin="round">
    <circle cx="12" cy="12" r="5"></circle>
    <line x1="12" y1="1" x2="12" y2="3"></line>
    <line x1="12" y1="21" x2="12" y2="23"></line>
    <line x1="4.22" y1="4.22" x2="5.64" y2="5.64"></line>
    <line x1="18.36" y1="18.36" x2="19.78" y2="19.78"></line>
    <line x1="1" y1="12" x2="3" y2="12"></line>
    <line x1="21" y1="12" x2="23" y2="12"></line>
    <line x1="4.22" y1="19.78" x2="5.64" y2="18.36"></line>
    <line x1="18.36" y1="5.64" x2="19.78" y2="4.22"></line>
  </symbol>

  <!-- Icono: Cerrar -->
  <symbol id="icon-close" viewBox="0 0 24 24" fill="none" stroke="currentColor" stroke-width="2" stroke-linecap="round" stroke-linejoin="round">
    <line x1="18" y1="6" x2="6" y2="18"></line>
    <line x1="6" y1="6" x2="18" y2="18"></line>
  </symbol>

  <!-- Icono: Guardar -->
  <symbol id="icon-save" viewBox="0 0 24 24" fill="none" stroke="currentColor" stroke-width="2" stroke-linecap="round" stroke-linejoin="round">
    <path d="M19 21H5a2 2 0 0 1-2-2V5a2 2 0 0 1 2-2h11l5 5v11a2 2 0 0 1-2 2z"></path>
    <polyline points="17 21 17 13 7 13 7 21"></polyline>
    <polyline points="7 3 7 8 15 8"></polyline>
  </symbol>

  <!-- Icono: Copiar -->
  <symbol id="icon-copy" viewBox="0 0 24 24" fill="none" stroke="currentColor" stroke-width="2" stroke-linecap="round" stroke-linejoin="round">
    <path d="M16 4h2a2 2 0 0 1 2 2v14a2 2 0 0 1-2 2H6a2 2 0 0 1-2-2V6a2 2 0 0 1 2-2h2"></path>
    <rect x="8" y="2" width="8" height="4" rx="1" ry="1"></rect>
  </symbol>

  <!-- Icono: Cargar -->
  <symbol id="icon-load" viewBox="0 0 24 24" fill="none" stroke="currentColor" stroke-width="2" stroke-linecap="round" stroke-linejoin="round">
    <path d="M19 14c1.49-1.46 3-3.5 3-5.5A5.5 5.5 0 0 0 16.5 3c-1.76 0-3 .5-4.5 2-1.5-1.5-2.74-2-4.5-2A5.5 5.5 0 0 0 2 8.5c0 2 1.51 4.04 3 5.5"></path>
    <path d="M12 21v-7m0 0v-4"></path>
  </symbol>

  <!-- Icono: Basura -->
  <symbol id="icon-trash" viewBox="0 0 24 24" fill="none" stroke="currentColor" stroke-width="2" stroke-linecap="round" stroke-linejoin="round">
    <polyline points="3 6 5 6 21 6"></polyline>
    <path d="M19 6v14a2 2 0 0 1-2 2H7a2 2 0 0 1-2-2V6m3 0V4a2 2 0 0 1 2-2h4a2 2 0 0 1 2 2v2"></path>
    <line x1="10" y1="11" x2="10" y2="17"></line>
    <line x1="14" y1="11" x2="14" y2="17"></line>
  </symbol>

  <!-- Icono: Reloj/Historial -->
  <symbol id="icon-history" viewBox="0 0 24 24" fill="none" stroke="currentColor" stroke-width="2" stroke-linecap="round" stroke-linejoin="round">
    <circle cx="12" cy="12" r="10"></circle>
    <polyline points="12 6 12 12 16 14"></polyline>
  </symbol>
</svg>
